<svg width="882.95113" height="612.14792" xmlns="http://www.w3.org/2000/svg">

 <g>
  <title>background</title>
  <rect fill="none" id="canvas_background" height="402" width="582" y="-1" x="-1"/>
 </g>
 <g>
  <title>Layer 1</title>
  <path id="svg_1" fill="#e6e6e6" d="m102.896091,530.317859s-112.306,-51.70032 -72.853,-87.55226s72.853,87.55226 72.853,87.55226z"/>
  <path id="svg_2" fill="#e6e6e6" d="m100.941361,542.381619s-51.62,-169.60649 24.39238,-161.49519s-24.39238,161.49519 -24.39238,161.49519z"/>
  <path id="svg_3" fill="#e6e6e6" d="m63.304681,527.339579l2.16658,28.37158l0.03437,0.49006a130.3557,130.3557 0 0 0 0.67062,13.26586c2.94032,28.939 15.57858,42.12751 30.349,42.12751s26.85843,-13.18851 29.79874,-42.12751a130.35277,130.35277 0 0 0 0.67063,-13.26586l0.01721,-0.3955l0.00856,-0.09456l2.17518,-28.37158l-65.89089,0z"/>
  <path id="svg_4" fill="#fff" d="m127.020381,555.711159l-0.00856,0.09456l-0.01721,0.3955a130.35277,130.35277 0 0 1 -0.67063,13.26586l-60.14773,0a130.3557,130.3557 0 0 1 -0.67062,-13.26586l-0.03437,-0.49006l61.54912,0z"/>
  <path id="svg_5" fill="#e6e6e6" d="m835.384051,547.668849s-86.94909,-40.0272 -56.40393,-67.78435s56.40393,67.78435 56.40393,67.78435z"/>
  <path id="svg_6" fill="#e6e6e6" d="m833.870671,557.008809s-39.965,-131.312 18.885,-125.03214s-18.885,125.03214 -18.885,125.03214z"/>
  <path id="svg_7" fill="#e6e6e6" d="m804.731761,545.363019l1.67739,21.96573l0.02661,0.37942a100.92376,100.92376 0 0 0 0.51921,10.27064c2.27644,22.405 12.06118,32.61578 23.49667,32.61578s20.79422,-10.21075 23.07066,-32.61578a100.92088,100.92088 0 0 0 0.51921,-10.27064l0.01333,-0.30621l0.00662,-0.07321l1.68406,-21.96573l-51.01376,0z"/>
  <path id="svg_8" fill="#fff" d="m854.061461,567.328749l-0.00662,0.07321l-0.01333,0.30621a100.92088,100.92088 0 0 1 -0.51921,10.27064l-46.56733,0a100.92376,100.92376 0 0 1 -0.51921,-10.27064l-0.02661,-0.37942l47.65231,0z"/>
  <path id="svg_9" fill="#e6e6e6" d="m292.716051,182.586959l0,-38.587l-6,0l0,38.587a8,8 0 1 0 6,0z"/>
  <path id="svg_10" fill="#e6e6e6" d="m306.716051,571.999959l-41,0l0,-498l-16,0l0,498l-41.00006,0a36.99993,36.99993 0 0 0 -36.99994,37l0,0.00006l172,0l0,-0.00006a36.99994,36.99994 0 0 0 -37,-37z"/>
  <path id="svg_11" fill="#6c63ff" d="m171.799061,147.999959l171.834,0l-10.50783,-131.34029a18.19785,18.19785 0 0 0 -18.04589,-16.65971l-114.72657,0a18.19786,18.19786 0 0 0 -18.0459,16.65967l-10.50781,131.34033z"/>
  <path id="svg_12" fill="#a0616a" d="m411.055081,378.519709l0,0a12.36991,12.36991 0 0 0 -14.25813,10.33891l-4.83778,31.74861l16.46027,4.36571l12.0607,-29.58071a12.3699,12.3699 0 0 0 -9.42506,-16.87252z"/>
  <path id="svg_13" fill="#6c63ff" d="m410.747341,420.547959c9.13486,36.3022 5.20345,69.506 -28.81235,95.5764c-40.79944,-11.24669 -67.9348,-38.38169 -84.491,-77.81795a19.68394,19.68394 0 0 1 11.35278,-26.09236l0,0a19.67385,19.67385 0 0 1 21.65853,5.5824l40.03145,46.20366l18.7797,-46.589l21.48089,3.13685z"/>
  <path id="svg_14" fill="#e6e6e6" d="m619.788021,611.006889c-37.2533,-1.97882 -60.39536,-14.77032 -66,-41l6,-11l68.69455,31.29418a9.60873,9.60873 0 0 1 -0.67559,17.76554l-8.01896,2.94028z"/>
  <path id="svg_15" fill="#e6e6e6" d="m591.002721,611.269519c-19.35606,-0.58621 -37.97042,-0.404 -55.60848,0.78963a11.78112,11.78112 0 0 1 -12.54729,-10.81562l-1.05893,-13.23664l-15,-24l13,-13c21.847,21.75885 45.80661,40.03546 74.26312,50.89948a5.13183,5.13183 0 0 1 -3.04842,9.36315z"/>
  <path id="svg_16" fill="#2f2e41" d="m485.788021,517.006889c-24.71649,44.22607 -49.02521,74.04016 -81,90c-39.33911,12.98389 -68.09036,-4.21814 -90.5,-39.5l65,-43l9.5,9.5l86.09793,-65.51825a10.99335,10.99335 0 0 1 15.46383,0.34379l73.43824,90.17446l-9,15l-69,-57z"/>
  <polygon id="svg_17" fill="#2f2e41" points="507.788 569.007 473.788 517.007 481.788 502.007 526.788 549.007 507.788 569.007"/>
  <circle id="svg_18" fill="#a0616a" r="34" cy="369.00689" cx="311.78801"/>
  <path id="svg_19" fill="#a0616a" d="m320.788021,432.006889l-38,-13a47.19464,47.19464 0 0 0 7,-30l31,0c-1.76294,15.25775 -2.02719,29.72961 0,43z"/>
  <path id="svg_20" fill="#6c63ff" d="m401.788021,523.006889c-5.697,2.339 -6.11334,9.92273 -11.5,12.5c-26.03951,12.45872 -53.589,22.56787 -72.5,40.5c-44.193,-30.01013 -85.15469,-123.2175 -32,-164c18.1438,10.6171 34.35086,18.2149 34,0l82,111z"/>
  <path id="svg_21" opacity="0.2" d="m378.788021,483.006889l-18.5,-6.5l-36.5,28.5l-16.362,-58.90314c-1.13483,-4.08539 -2.97351,-2.01458 -5.61389,0.82325a19.66444,19.66444 0 0 0 -33.0025,13.55651c-1.94635,42.72632 10.93823,78.8736 42.97839,106.52338c41.90735,-8.9729 59.69214,-37.28638 67,-74l-1.981,-1.32068q1.09495,-4.25583 1.981,-8.67932z"/>
  <path id="svg_22" fill="#2f2e41" d="m316.363061,324.280739c11.21515,2.56229 23.97993,6.19279 24.69571,9.56721c11.53674,2.90712 20.24455,9.87066 22.02258,20.48674a6.35789,6.35789 0 0 1 -6.37842,7.37318c-6.274,-0.08081 -15.69249,-0.68171 -21.91184,-3.27933c-18.0668,11.64106 -21.09937,41.91836 -13.20939,62.52755l-12.41583,-1.13807l-12.84495,-37.60217l-3.28088,36.12411l-28.33278,-3.74615l3.64939,-46.06468a68.6313,68.6313 0 0 1 10.778,-30.433a25.91975,25.91975 0 0 1 2.02788,-2.62722a36.01052,36.01052 0 0 1 35.20053,-11.18817z"/>
  <polygon id="svg_23" fill="#3f3d56" points="380.285 438.428 411.402 475.011 458.078 419.925 426.54 381.659 380.285 438.428"/>
  <path id="svg_24" fill="#f2f2f2" d="m450.088201,421.186739l-37.00433,-30.27628c2.10253,-5.046 12.19462,-3.364 12.19462,-3.364l28.96639,29.36594a15.85058,15.85058 0 0 1 2.57139,3.43337l0,0l-6.72807,0.84097z"/>
  <path id="svg_25" fill="#3f3d56" d="m451.770221,419.084229l-42.05039,-32.79927l-46.67593,70.64465l43.94267,29.64549c4.20506,1.682 8.41008,-1.26151 8.41008,-1.26151l42.89138,-65.59863l-6.51781,-0.63073z"/>
  <rect id="svg_26" fill="#6c63ff" transform="rotate(-54.29970169067383 -361.1363525390625,561.7738037109375) " height="33.14262" width="0.68148" y="1095.597604" x="225.269327"/>
  <rect id="svg_27" fill="#6c63ff" transform="rotate(-56.518680572509766 -392.33984374999983,608.9270629882814) " height="0.68152" width="64.02865" y="1202.503623" x="159.028176"/>
  <rect id="svg_28" fill="#6c63ff" transform="rotate(-53.655941009521484 -428.38446044921875,546.0667114257812) " height="35.49187" width="0.68169" y="1140.109501" x="118.49381"/>
  <rect id="svg_29" fill="#6c63ff" transform="rotate(-55.16205978393555 -388.62771606445307,551.263916015625) " height="0.68129" width="64.0408" y="1118.769336" x="129.724604"/>
  <rect id="svg_30" fill="#b3b3b3" transform="rotate(-47.45515823364258 -368.07949829101557,472.2770690917969) " height="45.16385" width="0.42026" y="996.174749" x="227.890832"/>
  <rect id="svg_31" fill="#b3b3b3" transform="rotate(-48.56153106689453 -367.5248107910155,486.425750732422) " height="46.38865" width="0.42069" y="1010.056891" x="226.427179"/>
  <rect id="svg_32" fill="#b3b3b3" transform="rotate(-50.18727111816406 -365.6134948730468,508.1316223144532) " height="46.99749" width="0.42073" y="1031.769532" x="226.829955"/>
  <path id="svg_33" fill="#a0616a" d="m397.081491,449.167559l0,0a12.3699,12.3699 0 0 0 -17.31358,3.22913l-17.97987,26.61021l13,11l23.57629,-21.55546a12.36992,12.36992 0 0 0 -1.28284,-19.28388z"/>
  <path id="svg_34" fill="#6c63ff" d="m378.788021,487.006889c-7.30789,36.71362 -25.09265,65.0271 -67,74c-32.04018,-27.64977 -44.92473,-63.797 -42.97837,-106.52334a19.68394,19.68394 0 0 1 21.44142,-18.70729l0,0a19.67386,19.67386 0 0 1 17.17493,14.32748l16.362,58.90315l36.9373,-34.0418l18.06272,12.0418z"/>
  <path id="svg_36" fill="#e6e6e6" d="m461.288021,91.506889a2.002,2.002 0 0 0 -2,2l0,156a2.002,2.002 0 0 0 2,2l130,0a2.00229,2.00229 0 0 0 2,-2l0,-156a2.00229,2.00229 0 0 0 -2,-2l-130,0z"/>
  <path id="svg_37" fill="#fff" d="m474.788021,236.006889l103,0l0,-129l-103,0l0,129z"/>
  <path id="svg_38" fill="#e6e6e6" d="m677.720851,132.506889a1.19539,1.19539 0 0 0 -1.194,1.194l0,77.61197a1.19539,1.19539 0 0 0 1.194,1.194l93.13433,0a1.1954,1.1954 0 0 0 1.194,-1.194l0,-77.6119a1.1954,1.1954 0 0 0 -1.194,-1.194l-93.13433,-0.00007z"/>
  <path id="svg_39" fill="#fff" d="m685.780571,141.760619l0,61.49254l77.01492,0l0,-61.49254l-77.01492,0z"/>
  <path id="svg_40" fill="#e6e6e6" d="m544.474571,102.506889l-36.373,0a4.98866,4.98866 0 0 1 -4.33008,-7.5l18.18652,-31.5c0.01465,-0.02588 0.03027,-0.05176 0.04541,-0.07764a4.94072,4.94072 0 0 1 3.78662,-2.39843l0.02637,-0.00245c0.15527,-0.01416 0.313,-0.02148 0.47168,-0.02148a4.949,4.949 0 0 1 4.33008,2.5l18.18652,31.5a5.00025,5.00025 0 0 1 -4.33008,7.5l-0.00004,0zm-37.377,-5.00488a1.02812,1.02812 0 0 0 0.13769,0.50488a0.983,0.983 0 0 0 0.86622,0.5l36.373,0a0.98225,0.98225 0 0 0 0.86621,-0.5a1.02749,1.02749 0 0 0 0.1377,-0.50439a0.985,0.985 0 0 0 -0.1377,-0.49512l-18.18652,-31.50049a1.00032,1.00032 0 0 0 -1.73242,0l-18.18653,31.5a0.98133,0.98133 0 0 0 -0.13765,0.49512z"/>
  <circle id="svg_41" fill="#e6e6e6" r="3" cy="67.50689" cx="526.28801"/>
  <path id="svg_42" fill="#e6e6e6" d="m734.148071,135.006889l-19.72033,0a2.7047,2.7047 0 0 1 -2.34763,-4.06626l9.86016,-17.07832l0.02462,-0.04209a2.67875,2.67875 0 0 1 2.053,-1.30036l0.0143,-0.00132c0.08418,-0.00768 0.16969,-0.01165 0.25573,-0.01165a2.68319,2.68319 0 0 1 2.34763,1.35542l9.86016,17.07832a2.711,2.711 0 0 1 -2.34763,4.06626l-0.00001,0zm-20.2646,-2.71349a0.55736,0.55736 0 0 0 0.07465,0.27373a0.53294,0.53294 0 0 0 0.46963,0.27109l19.72032,0a0.53255,0.53255 0 0 0 0.46963,-0.27109a0.55707,0.55707 0 0 0 0.07466,-0.27347a0.534,0.534 0 0 0 -0.07466,-0.26843l-9.86013,-17.07858a0.54234,0.54234 0 0 0 -0.93927,0l-9.86019,17.07831a0.532,0.532 0 0 0 -0.07465,0.26844l0.00001,0z"/>
  <circle id="svg_43" fill="#e6e6e6" r="1.62651" cy="116.03099" cx="724.2879"/>
  <path id="svg_44" fill="#e6e6e6" d="m475.966191,186.887859a26.49038,26.49038 0 0 1 15.26208,-14.32731a26.1812,26.1812 0 0 1 21.81176,1.35712c7.80387,4.1417 14.0425,10.65305 21.96763,14.61673a56.17868,56.17868 0 0 0 24.78608,5.839a55.4781,55.4781 0 0 0 27.7934,-7.2142a1.50112,1.50112 0 0 0 -1.51416,-2.59042a53.34339,53.34339 0 0 1 -50.43027,0.92525c-7.951,-4.169 -14.25106,-10.90053 -22.35074,-14.80678a28.87992,28.87992 0 0 0 -22.23054,-1.24775a29.84552,29.84552 0 0 0 -17.98808,16.65087c-0.728,1.787 2.1729,2.56474 2.89284,0.79752l0,-0.00003z"/>
  <path id="svg_45" fill="#e6e6e6" d="m473.595961,214.930519a114.2042,114.2042 0 0 1 50.54024,0.17516c14.76636,3.42442 30.00938,9.585 45.23381,4.99041c6.80178,-2.05269 13.03535,-6.15841 16.52959,-12.4769c0.935,-1.69082 -1.65488,-3.20586 -2.59042,-1.51416c-6.5792,11.89691 -21.99243,13.9042 -34.16617,11.95216c-8.13433,-1.30432 -15.97376,-3.91967 -23.9804,-5.79125a116.87741,116.87741 0 0 0 -52.36417,-0.22826c-1.88344,0.42053 -1.08636,3.31347 0.79752,2.89284z"/>
  <path id="svg_46" fill="#e6e6e6" d="m472.514851,147.871959a118.62787,118.62787 0 0 1 48.04227,1.70916c14.69483,3.6004 29.05874,11.82591 44.597,10.40532c7.1936,-0.65768 14.31559,-3.30335 19.20257,-8.80668c1.2781,-1.43928 -0.8362,-3.56851 -2.12132,-2.12132c-4.21578,4.74747 -10.28784,7.208 -16.51871,7.87279c-7.18164,0.76619 -14.23808,-0.72176 -21.0736,-2.83584c-7.56638,-2.34012 -14.91657,-5.3046 -22.60926,-7.23882a121.4994,121.4994 0 0 0 -50.31646,-1.87744c-1.89919,0.3243 -1.09393,3.21582 0.79751,2.89283z"/>
  <path id="svg_47" fill="#e6e6e6" d="m699.192041,140.747489a52.29994,52.29994 0 0 1 13.72209,25.58689a51.6547,51.6547 0 0 1 -11.16774,43.86118c-1.243,1.46343 0.86917,3.59557 2.12132,2.12132a55.41416,55.41416 0 0 0 12.69854,-28.67315a54.6929,54.6929 0 0 0 -15.25289,-45.01756c-1.3539,-1.38082 -3.47467,0.74106 -2.12132,2.12132z"/>
  <path id="svg_48" fill="#e6e6e6" d="m744.202571,134.345759c-9.19406,6.74316 -14.34111,17.62729 -15.06541,28.88508c-0.75361,11.7135 3.71362,23.02594 10.90747,32.12048a62.46258,62.46258 0 0 0 14.8484,13.40375c1.62026,1.06015 3.12514,-1.53634 1.51415,-2.59041c-9.18459,-6.00953 -17.04368,-14.54628 -21.21739,-24.7909a40.11715,40.11715 0 0 1 -0.08682,-30.73794a32.84189,32.84189 0 0 1 10.61376,-13.69965c1.54083,-1.13008 0.04586,-3.73456 -1.51416,-2.59041z"/>
  <circle id="svg_49" fill="#e6e6e6" r="14" cy="150.50689" cx="533.28801"/>
  <path id="svg_50" d="m-1.024445,606.573959c4,-10 -301,-454 -300.975555,-454.573959" opacity="0.5" stroke-width="1.5" stroke="#000" fill="#fff"/>
 </g>
</svg>